<?xml version="1.0" encoding="UTF-8" standalone="no"?>
<!DOCTYPE svg PUBLIC "-//W3C//DTD SVG 1.1//EN" "http://www.w3.org/Graphics/SVG/1.1/DTD/svg11.dtd">
<svg width="100%" height="100%" viewBox="0 0 1000 1000" version="1.1" xmlns="http://www.w3.org/2000/svg" xmlns:xlink="http://www.w3.org/1999/xlink" xml:space="preserve" xmlns:serif="http://www.serif.com/" style="fill-rule:evenodd;clip-rule:evenodd;stroke-linejoin:round;stroke-miterlimit:2;">
    <g transform="matrix(5.42675,0,0,5.42675,-292.709,-243.059)">
        <g transform="matrix(1,0,0,1,-11.8204,-39.8804)">
            <g transform="matrix(0.327403,0,0,0.327403,-27.159,99.5221)">
                <g>
                    <g transform="matrix(1.11793,0,0,1.04704,1.93478,147.842)">
                        <path d="M701.143,216.255C701.143,217.02 704.02,219.44 707.538,221.633L713.933,225.622L723.915,224.54C737.524,223.068 740.575,223.192 742.961,225.317C747.213,229.104 744.696,230.66 732.757,231.628C728.213,231.997 724.464,232.776 723.947,233.459C723.243,234.39 717.607,234.484 698.007,233.89C684.234,233.472 580.687,233.104 467.9,233.07C331.823,233.031 262.834,232.69 262.834,232.056C262.834,231.422 331.789,231.099 467.9,231.095C580.687,231.092 676.283,230.813 680.337,230.477C686.595,229.957 687.472,229.682 686.152,228.65C683.916,226.905 685.497,225.805 688.289,227.163L690.648,228.311L690.051,223.499C689.269,217.206 691.038,217.018 694.881,222.983C697.635,227.256 700.023,228.313 702.75,226.465C703.673,225.841 703.614,225.416 702.468,224.401C700.379,222.549 698.25,217.779 698.814,216.211C699.45,214.443 701.143,214.475 701.143,216.255Z" style="fill:rgb(0,63,92);"/>
                    </g>
                    <g transform="matrix(1.11793,0,0,1.04704,-131.429,177.136)">
                        <path d="M504.074,128.669C503.784,131.165 501.671,140.082 499.379,148.487C495.443,162.914 492.826,173.386 492.755,174.99C492.737,175.384 499.216,175.707 507.151,175.707L521.579,175.707L521.117,179.766C520.863,181.999 520.216,185.007 519.681,186.451L518.708,189.078L496.323,189.078C475.598,189.078 473.939,188.953 473.944,187.406C473.954,184.849 477.18,170.972 481.216,156.128C483.215,148.773 485.791,138.931 486.94,134.255C488.089,129.579 489.558,125.396 490.205,124.958C490.851,124.52 494.355,124.155 497.99,124.147L504.601,124.133L504.074,128.669Z" style="fill:rgb(0,63,92);"/>
                    </g>
                    <g transform="matrix(1.11793,0,0,1.04704,-131.429,177.136)">
                        <path d="M542.689,125.804C543.146,126.724 544.611,131.821 545.945,137.132C547.279,142.443 548.743,147.386 549.199,148.115C550.175,149.677 555.937,143.241 563.594,132.039L568.309,125.141L576.135,125.114C580.441,125.1 583.962,125.457 583.962,125.909C583.962,128.214 575.824,139.136 562.834,154.268L554.591,163.869L551.526,176.235L548.461,188.6L541.923,188.884C538.327,189.039 535.061,188.822 534.666,188.4C534.271,187.977 534.928,183.552 536.128,178.565C539.333,165.236 539.226,163.357 534.558,150.81C528.841,135.445 526.41,127.311 527.024,125.602C527.848,123.31 541.536,123.486 542.689,125.804Z" style="fill:rgb(0,63,92);"/>
                    </g>
                    <g transform="matrix(1.11793,0,0,1.04704,-131.429,177.136)">
                        <path d="M724.796,126.604C734.274,129.108 739.604,135.269 739.594,143.712C739.584,152.752 733.615,162.166 725.551,165.862L721.783,167.588L726.334,173.796C730.872,179.985 735.134,186.683 735.134,187.626C735.134,187.899 730.187,188.123 724.142,188.123L713.15,188.123L708.264,180.031L703.379,171.94L689.834,171.913C674.618,171.883 675.725,171.284 674.726,180.093C674.375,183.196 673.685,186.273 673.193,186.929C672.599,187.722 669.638,188.123 664.359,188.123C657.501,188.123 656.417,187.903 656.417,186.509C656.417,183.665 660.146,160.127 660.957,157.849L661.74,155.65L687.479,155.648C710.196,155.647 713.585,155.451 716.34,153.977C722.6,150.627 721.717,143.43 714.792,141.376C712.859,140.803 701.639,140.377 688.396,140.375C675.727,140.372 665.381,140.046 665.404,139.653C665.427,139.259 668.033,135.928 671.194,132.251L676.943,125.565L683.452,125.088C695.077,124.235 719.173,125.118 724.796,126.604Z" style="fill:rgb(0,63,92);"/>
                    </g>
                    <g transform="matrix(1.11793,0,0,1.04704,-131.429,177.136)">
                        <path d="M435.151,164.962C434.908,165.882 433.632,170.931 432.317,176.184C431.002,181.437 429.778,186.273 429.597,186.929C429.361,187.786 426.613,188.123 419.848,188.123C411.929,188.123 410.428,187.887 410.428,186.639C410.428,183.096 413.382,171.742 414.784,169.892C416.646,167.438 427.459,163.35 432.18,163.315C435.01,163.294 435.519,163.577 435.151,164.962Z" style="fill:rgb(0,63,92);"/>
                    </g>
                    <g transform="matrix(1.11793,0,0,1.04704,-131.429,177.136)">
                        <path d="M813.765,125.804C813.717,126.724 813.212,129.624 812.641,132.251L811.605,137.026L791.483,137.504C769.935,138.015 767.98,138.439 766.377,142.941C765.22,146.188 766.101,148.855 768.514,149.407C769.588,149.652 776.908,149.991 784.779,150.159C799.841,150.481 802.415,151.129 806.153,155.538C807.432,157.047 807.824,158.904 807.768,163.175C807.633,173.32 803.146,181.136 795.162,185.134C790.196,187.62 789.911,187.648 766.097,187.954C746.194,188.21 742.128,188.041 742.511,186.975C742.766,186.266 743.453,183.226 744.037,180.218L745.101,174.752L765.122,174.752C786.927,174.752 788.89,174.367 790.686,169.739C792.808,164.268 791.746,163.831 774.845,163.235C758.532,162.66 755.295,161.826 751.268,157.167C749.401,155.004 749.088,153.766 749.212,149.008C749.539,136.382 756.392,127.504 767.644,125.127C769.689,124.695 780.922,124.295 792.606,124.238C812.31,124.14 813.844,124.254 813.765,125.804Z" style="fill:rgb(0,63,92);"/>
                    </g>
                </g>
            </g>
            <g transform="matrix(0.327403,0,0,0.327403,-67.6251,157.508)">
                <g>
                    <g transform="matrix(1.11793,0,0,1.04704,-7.83134,0.0283775)">
                        <path d="M472.149,142.795C472.149,144.534 468.197,150.94 465.242,153.992C460.693,158.69 457.783,159.47 444.819,159.47C434.429,159.47 422.218,161.673 417.283,164.436C416.381,164.942 415.442,165.142 415.197,164.88C414.443,164.076 418.05,156.312 420.779,152.863C426.098,146.143 436.385,141.323 435.215,146.099C434.931,147.258 435.188,148.009 435.867,148.009C436.482,148.009 437.715,147.15 438.605,146.099C439.689,144.82 441.36,144.189 443.663,144.189C447.553,144.189 447.606,144.335 445.761,149.92C445.023,152.153 444.419,154.356 444.419,154.815C444.419,156.682 447.174,155.469 449.033,152.785C450.124,151.209 451.563,149.92 452.23,149.92C452.897,149.92 453.362,149.383 453.262,148.726C452.836,145.899 454.488,144.188 457.709,144.122C459.502,144.085 461.773,143.686 462.757,143.234C464.736,142.326 472.149,141.979 472.149,142.795Z" style="fill:rgb(0,175,255);"/>
                    </g>
                    <g transform="matrix(1.11793,0,0,1.04704,-7.83134,0.0283775)">
                        <path d="M478.391,126.759C478.351,130.214 474.869,136.553 471.977,138.437C469.405,140.113 468.083,140.286 461.862,139.76C454.216,139.115 452.47,138.318 452.47,135.477C452.47,134.49 451.936,133.683 451.284,133.683C450.632,133.683 449.153,132.609 447.997,131.296C445.751,128.744 443.512,128.143 443.544,130.102C443.555,130.759 444.326,133.087 445.257,135.277C446.189,137.466 446.716,139.508 446.43,139.814C445.553,140.75 439.193,140.429 438.608,139.419C438.305,138.896 437.262,138.015 436.29,137.459C434.703,136.551 434.58,136.692 435.081,138.825C435.581,140.95 435.273,141.309 432.183,142.197C430.282,142.743 427.006,144.542 424.903,146.193C422.8,147.843 420.832,148.931 420.531,148.608C419.586,147.6 422.132,140.119 424.862,135.883C427.64,131.571 431.877,127.694 435.501,126.151C436.716,125.632 446.868,125.181 458.06,125.148C476.874,125.092 478.409,125.214 478.391,126.759Z" style="fill:rgb(0,175,255);"/>
                    </g>
                </g>
                <g transform="matrix(1.11793,0,0,1.04704,-7.83134,0.0283775)">
                    <path d="M653.734,125.606C653.734,126.505 646.893,135.976 644.639,138.198C642.588,140.22 641.639,140.338 625.553,140.586L608.627,140.846L607.789,143.967C607.329,145.683 607.135,147.282 607.358,147.52C607.581,147.759 616.699,148.249 627.618,148.609C638.538,148.97 647.472,149.475 647.472,149.733C647.472,150.354 641.473,158.148 638.787,161.017C636.702,163.243 636.319,163.291 620.637,163.291L604.617,163.291L604.04,166.571C603.724,168.375 603.729,170.309 604.053,170.869C604.443,171.542 611.897,171.886 626.131,171.886C639.724,171.886 647.512,172.229 647.323,172.819C647.159,173.332 644.445,176.985 641.292,180.938L635.558,188.123L584.587,188.123L585.133,179.288C585.435,174.429 586.869,162.503 588.322,152.785C589.775,143.067 591.237,132.859 591.572,130.102L592.181,125.088L622.958,125.088C639.884,125.088 653.734,125.321 653.734,125.606Z" style="fill:rgb(236,58,0);"/>
                </g>
            </g>
        </g>
        <g transform="matrix(1,0,0,1,61.242,-22.8636)">
            <g transform="matrix(0.366014,0,0,0.342804,-29.723,99.5314)">
                <path d="M515.355,90.563C516.268,90.948 511.815,91.761 505.068,92.441C480.093,94.961 460.05,100.788 440.394,111.243C428.344,117.652 421.639,122.542 405.287,136.843C394.175,146.561 379.346,157.311 368.269,163.678C342.643,178.409 317.394,180.747 285.814,171.314C277.365,168.79 275.913,168.242 260.151,161.626C248.479,156.726 196.894,130.656 188.384,125.355C182.794,121.874 165.793,104.743 163.615,100.396C162.527,98.227 162.579,98.177 165.268,98.808C170.576,100.052 223.832,123.57 245.391,134.189C249.327,136.128 257.982,139.773 264.623,142.289C271.265,144.804 277.889,147.358 279.343,147.965C283.488,149.692 297.372,153.464 306.218,155.264C317.506,157.562 339.647,157.607 348.795,155.351C358.295,153.007 368.753,146.324 387.415,130.666C395.967,123.492 405.882,115.606 409.448,113.143C426.025,101.693 449.785,92.559 468.571,90.413C474.366,89.751 513.727,89.877 515.355,90.563Z" style="fill:rgb(0,63,92);"/>
            </g>
            <g transform="matrix(0.366014,0,0,0.342804,-29.723,99.5314)">
                <path d="M101.215,28.501C117.648,40.549 151.205,52.479 185.907,58.61C218.926,64.443 246.891,66.702 299.956,67.822C341.052,68.69 353.554,69.408 368.386,71.754C378.403,73.339 398.048,71.486 420.715,66.818C458.798,58.974 460.083,58.784 475.28,58.745C491.349,58.705 495.328,59.686 502.896,65.55C507.452,69.079 508.524,71.519 504.557,69.329C501.329,67.547 492.694,65.865 486.967,65.904L482.436,65.933L484.946,68.291C486.717,69.955 488.504,70.648 491.021,70.648C496.378,70.648 506.621,73.139 516.379,76.814C531.603,82.549 533.804,85.611 522.018,84.662C493.377,82.358 466.133,83.255 452.904,86.941C434,92.206 421.202,97.564 412.542,103.836C397.453,114.764 370.926,130.303 355.416,137.298C338.337,145.001 333.935,146.442 327.686,146.373C318.948,146.278 227.059,118.92 215.873,113.082L211.4,110.748L217.662,111.21C221.106,111.464 230.162,112.563 237.788,113.652C258.268,116.576 269.217,116.354 285.982,112.675C293.548,111.014 300.569,109.326 301.586,108.925C302.602,108.523 292.991,107.922 280.227,107.588C241.975,106.589 213.365,102.717 183.936,94.559C166.441,89.709 144.759,80.684 144.759,78.253C144.759,77.034 144.518,77 154.437,79.636C172.797,84.517 197.883,87.429 230.185,88.428C247.493,88.963 272.589,88.322 271.613,87.37C271.458,87.219 263.483,86.594 253.889,85.981C185.922,81.641 131.969,63.875 104.359,36.743C98.554,31.04 95.001,25.76 96.966,25.76C97.246,25.76 99.158,26.994 101.215,28.501Z" style="fill:rgb(0,175,255);"/>
            </g>
        </g>
    </g>
</svg>
